
nColumns=19
nRows=42
DataType=double
version=3
OpenSimVersion=4.4-2022-10-11-798caa840
endheader
time	ground_force_calcn_r_vx	ground_force_calcn_r_vy	ground_force_calcn_r_vz	ground_force_calcn_r_px	ground_force_calcn_r_py	ground_force_calcn_r_pz	ground_force_calcn_r_mx	ground_force_calcn_r_my	ground_force_calcn_r_mz	ground_force_calcn_l_vx	ground_force_calcn_l_vy	ground_force_calcn_l_vz	ground_force_calcn_l_px	ground_force_calcn_l_py	ground_force_calcn_l_pz	ground_force_calcn_l_mx	ground_force_calcn_l_my	ground_force_calcn_l_mz
10.13	-9.52106	444.895	-45.0488	-0.16589	0	-0.447199	0.0569818	-2.66262	0.269609	8.16743	207.159	35.5678	-0.121304	0	-0.8255400000000001	-0.0781118	-1.98123	-0.340164
10.14	-8.82719	437.724	-44.8292	-0.167378	0	-0.44746	0.052697	-2.61314	0.267624	8.38653	210.608	36.4902	-0.122704	0	-0.825927	-0.0779907	-1.95855	-0.339341
10.15	-8.099919999999999	430.532	-44.5677	-0.168885	0	-0.44772	0.0480893	-2.55607	0.264599	8.606170000000001	214.2	37.4058	-0.124092	0	-0.826319	-0.0775261	-1.92956	-0.336958
10.16	-7.35014	423.378	-44.2618	-0.170408	0	-0.447982	0.0432913	-2.49364	0.260696	8.82466	217.982	38.3132	-0.12546	0	-0.826713	-0.0767185	-1.89506	-0.333081
10.17	-6.58995	416.314	-43.908	-0.171945	0	-0.44825	0.0384366	-2.4282	0.256098	9.034829999999999	222.008	39.2118	-0.126801	0	-0.827111	-0.0755263	-1.85587	-0.327789
10.18	-5.83144	409.395	-43.5023	-0.173496	0	-0.448526	0.0336483	-2.36227	0.251015	9.225	226.334	40.1018	-0.128104	0	-0.827508	-0.0738823	-1.81269	-0.321172
10.19	-5.08557	402.665	-43.0411	-0.175054	0	-0.44881	0.0290276	-2.29835	0.245671	9.381779999999999	231.016	40.9843	-0.129361	0	-0.827901	-0.0717309	-1.76629	-0.313357
10.2	-4.36241	396.158	-42.5209	-0.176619	0	-0.449105	0.0246525	-2.23874	0.240291	9.490410000000001	236.108	41.8616	-0.130561	0	-0.8282890000000001	-0.0690317	-1.71741	-0.304494
10.21	-3.67206	389.891	-41.9399	-0.178186	0	-0.449408	0.0205832	-2.18548	0.235089	9.533469999999999	241.656	42.7372	-0.131693	0	-0.82867	-0.0657515	-1.66668	-0.294755
10.22	-3.02299	383.87	-41.2975	-0.179754	0	-0.449723	0.0168556	-2.14038	0.230266	9.49189	247.698	43.6159	-0.132749	0	-0.82904	-0.0618793	-1.61479	-0.28434
10.23	-2.42067	378.09	-40.5943	-0.18132	0	-0.45005	0.0134771	-2.10502	0.226009	9.348229999999999	254.256	44.5039	-0.13372	0	-0.829396	-0.0574421	-1.56232	-0.273463
10.24	-1.86459	372.55	-39.8332	-0.182891	0	-0.450392	0.0104142	-2.08079	0.222478	9.08994	261.337	45.4078	-0.134605	0	-0.829736	-0.0525147	-1.5098	-0.262331
10.25	-1.34717	367.255	-39.0219	-0.184468	0	-0.450748	0.00758823	-2.06865	0.2198	8.711370000000001	268.937	46.3346	-0.135403	0	-0.830057	-0.0472166	-1.45767	-0.251139
10.26	-0.85876	362.224	-38.1736	-0.186059	0	-0.45112	0.00490505	-2.06894	0.21804	8.213290000000001	277.033	47.2919	-0.13612	0	-0.830361	-0.0416948	-1.40636	-0.240078
10.27	-0.391902	357.488	-37.3069	-0.187666	0	-0.451504	0.00228172	-2.08136	0.217207	7.60128	285.586	48.2866	-0.136763	0	-0.83065	-0.0361027	-1.35641	-0.229339
10.28	0.0580822	353.084	-36.4436	-0.189291	0	-0.451896	-0.000346278	-2.10504	0.217272	6.88545	294.537	49.3224	-0.137339	0	-0.830927	-0.030584	-1.30828	-0.219082
10.29	0.494223	349.045	-35.6082	-0.190931	0	-0.452291	-0.0030282	-2.13867	0.218179	6.0799	303.811	50.3995	-0.137859	0	-0.831192	-0.0252588	-1.26218	-0.209384
10.3	0.919788	345.394	-34.8258	-0.19258	0	-0.452682	-0.00580693	-2.18059	0.219867	5.20189	313.319	51.5139	-0.138336	0	-0.831448	-0.0202206	-1.21792	-0.200243
10.31	1.33822	342.148	-34.1211	-0.194226	0	-0.453057	-0.008717809999999999	-2.22892	0.222282	4.27026	322.97	52.6586	-0.138779	0	-0.831693	-0.0155373	-1.17512	-0.191597
10.32	1.75073	339.311	-33.5161	-0.195851	0	-0.453407	-0.0117727	-2.28168	0.225377	3.30363	332.663	53.8242	-0.139204	0	-0.831928	-0.0112536	-1.1332	-0.18335
10.33	2.15532	336.872	-33.026	-0.197434	0	-0.453723	-0.0149518	-2.33694	0.229107	2.31959	342.294	54.9977	-0.139623	0	-0.832151	-0.00739795	-1.09169	-0.175406
10.34	2.54712	334.805	-32.6574	-0.198953	0	-0.453995	-0.0182044	-2.39287	0.233405	1.33449	351.75	56.1618	-0.140046	0	-0.83236	-0.00398455	-1.05026	-0.167689
10.35	2.91863	333.065	-32.4078	-0.200383	0	-0.454217	-0.0214494	-2.44774	0.23817	0.363617	360.914	57.2952	-0.14049	0	-0.832552	-0.00101613	-1.00857	-0.160111
10.36	3.26023	331.598	-32.2662	-0.2017	0	-0.454387	-0.024579	-2.49993	0.243256	-0.5786210000000001	369.675	58.3746	-0.140963	0	-0.832722	0.00151238	-0.966246	-0.152578
10.37	3.5607	330.344	-32.2162	-0.202882	0	-0.454502	-0.0274634	-2.54792	0.248481	-1.47794	377.93	59.3771	-0.141479	0	-0.832867	0.00360966	-0.92304	-0.14502
10.38	3.80717	329.244	-32.2383	-0.203911	0	-0.45456	-0.0299519	-2.59025	0.253626	-2.32023	385.592	60.2827	-0.14205	0	-0.832983	0.00528891	-0.878948	-0.137413
10.39	3.98659	328.244	-32.3128	-0.204768	0	-0.454563	-0.0318882	-2.62558	0.258466	-3.09177	392.601	61.0756	-0.142687	0	-0.833067	0.00656931	-0.834189	-0.129772
10.4	4.08773	327.296	-32.4214	-0.205444	0	-0.454513	-0.0331318	-2.65279	0.262781	-3.7787	398.922	61.7449	-0.143406	0	-0.833115	0.00747435	-0.789077	-0.122133
10.41	4.10203	326.366	-32.5498	-0.20593	0	-0.454413	-0.0335716	-2.67103	0.266392	-4.36604	404.548	62.2846	-0.144223	0	-0.833122	0.008029069999999999	-0.743957	-0.11454
10.42	4.02338	325.437	-32.6883	-0.206223	0	-0.454266	-0.0331305	-2.67982	0.269172	-4.83661	409.497	62.6931	-0.145155	0	-0.833087	0.008257219999999999	-0.699107	-0.107032
10.43	3.84829	324.504	-32.8316	-0.206329	0	-0.454077	-0.0317709	-2.67906	0.271053	-5.17114	413.809	62.9729	-0.146221	0	-0.833003	0.00818138	-0.6546959999999999	-0.0996307
10.44	3.57683	323.571	-32.9778	-0.206258	0	-0.453849	-0.0295046	-2.66908	0.272028	-5.35045	417.539	63.1302	-0.147434	0	-0.8328680000000001	0.007828160000000001	-0.610894	-0.0923648
10.45	3.21473	322.648	-33.127	-0.206025	0	-0.45359	-0.0264094	-2.6506	0.272143	-5.35763	420.753	63.1751	-0.148812	0	-0.8326789999999999	0.00723224	-0.567972	-0.0852797
10.46	2.77451	321.748	-33.2806	-0.205656	0	-0.453307	-0.0226334	-2.62469	0.27149	-5.17941	423.52	63.1201	-0.150363	0	-0.832436	0.00643677	-0.5263330000000001	-0.0784431
10.47	2.27467	320.885	-33.4403	-0.20518	0	-0.453011	-0.0183785	-2.59264	0.270185	-4.80637	425.899	62.9795	-0.152092	0	-0.832136	0.00549024	-0.486497	-0.0719404
10.48	1.73617	320.081	-33.6079	-0.204628	0	-0.452708	-0.0138622	-2.55563	0.268337	-4.23286	427.938	62.7688	-0.153997	0	-0.831782	0.00444109	-0.44899	-0.0658566
10.49	1.17854	319.36	-33.7855	-0.20403	0	-0.452408	-0.00927972	-2.51461	0.266024	-3.4576	429.665	62.5031	-0.156067	0	-0.831376	0.00333353	-0.414247	-0.0602602
10.5	0.617842	318.753	-33.9746	-0.203412	0	-0.452116	-0.00478828	-2.47034	0.263304	-2.4832	431.092	62.1948	-0.158287	0	-0.8309260000000001	0.00220247	-0.382358	-0.0551638
10.51	0.06674869999999999	318.281	-34.1742	-0.202795	0	-0.451834	-0.000508258	-2.42355	0.26022	-1.31694	432.231	61.8522	-0.160635	0	-0.830438	0.00107473	-0.352737	-0.0504765
10.52	-0.464719	317.961	-34.381	-0.202198	0	-0.451566	0.00347108	-2.37491	0.256798	0.0259426	433.112	61.4804	-0.163091	0	-0.82992	-1.94084e-05	-0.324024	-0.0459953
10.53	-0.9687519999999999	317.795	-34.5888	-0.201635	0	-0.451314	0.00708702	-2.32487	0.253038	1.52055	433.783	61.083	-0.165633	0	-0.829377	-0.00103133	-0.294216	-0.04143
10.54	-1.43861	317.769	-34.789	-0.20112	0	-0.451084	0.0102936	-2.27372	0.248925	3.13117	434.31	60.6631	-0.168233	0	-0.8288140000000001	-0.00188264	-0.261133	-0.0364743
